<mxfile host="app.diagrams.net" modified="2024-08-06T01:17:13.087Z" agent="Mozilla/5.0 (X11; Linux x86_64; rv:128.0) Gecko/20100101 Firefox/128.0" etag="D1tpqrsJTV10mnA_GS-7" version="24.2.1" type="device">
  <diagram name="Page-1" id="WdRzlpsvn2Tba9XeZmaN">
    <mxGraphModel dx="607" dy="320" grid="1" gridSize="10" guides="1" tooltips="1" connect="1" arrows="1" fold="1" page="1" pageScale="1" pageWidth="1169" pageHeight="827" background="none" math="0" shadow="0">
      <root>
        <mxCell id="0" />
        <mxCell id="1" parent="0" />
        <mxCell id="n87EDvqpTR0pAGlPv8mh-1" value="Usuario" style="shape=umlActor;verticalLabelPosition=bottom;verticalAlign=top;html=1;outlineConnect=0;" vertex="1" parent="1">
          <mxGeometry x="80" y="80" width="40" height="80" as="geometry" />
        </mxCell>
        <mxCell id="n87EDvqpTR0pAGlPv8mh-2" value="&lt;div&gt;&amp;lt;&amp;lt;CRUD&amp;gt;&amp;gt;&lt;/div&gt;&lt;div&gt;gerenciar&lt;/div&gt;&lt;div&gt;revista&lt;br&gt;&lt;/div&gt;" style="ellipse;whiteSpace=wrap;html=1;" vertex="1" parent="1">
          <mxGeometry x="160" y="140" width="120" height="60" as="geometry" />
        </mxCell>
        <mxCell id="n87EDvqpTR0pAGlPv8mh-3" value="&lt;div&gt;&amp;lt;&amp;lt;CRUD&amp;gt;&amp;gt;&lt;/div&gt;&lt;div&gt;gerenciar&lt;/div&gt;emprestimo" style="ellipse;whiteSpace=wrap;html=1;" vertex="1" parent="1">
          <mxGeometry x="320" y="140" width="120" height="60" as="geometry" />
        </mxCell>
        <mxCell id="n87EDvqpTR0pAGlPv8mh-4" value="&lt;div&gt;&amp;lt;&amp;lt;CRUD&amp;gt;&amp;gt;&lt;/div&gt;&lt;div&gt;gerenciar&lt;/div&gt;tipo colecao" style="ellipse;whiteSpace=wrap;html=1;" vertex="1" parent="1">
          <mxGeometry x="400" y="40" width="120" height="60" as="geometry" />
        </mxCell>
        <mxCell id="n87EDvqpTR0pAGlPv8mh-5" value="&lt;div&gt;&amp;lt;&amp;lt;CRUD&amp;gt;&amp;gt;&lt;/div&gt;&lt;div&gt;gerenciar&lt;/div&gt;&lt;div&gt;caixa&lt;/div&gt;" style="ellipse;whiteSpace=wrap;html=1;" vertex="1" parent="1">
          <mxGeometry x="480" y="140" width="120" height="60" as="geometry" />
        </mxCell>
        <mxCell id="n87EDvqpTR0pAGlPv8mh-6" value="&lt;div&gt;&amp;lt;&amp;lt;CRUD&amp;gt;&amp;gt;&lt;/div&gt;&lt;div&gt;gerenciar&lt;/div&gt;amigo" style="ellipse;whiteSpace=wrap;html=1;" vertex="1" parent="1">
          <mxGeometry x="560" y="40" width="120" height="60" as="geometry" />
        </mxCell>
        <mxCell id="n87EDvqpTR0pAGlPv8mh-7" value="&lt;div&gt;consultar dono&lt;/div&gt;&lt;div&gt;revista&lt;br&gt;&lt;/div&gt;" style="ellipse;whiteSpace=wrap;html=1;" vertex="1" parent="1">
          <mxGeometry x="240" y="40" width="120" height="60" as="geometry" />
        </mxCell>
        <mxCell id="n87EDvqpTR0pAGlPv8mh-8" value="" style="endArrow=none;html=1;rounded=0;" edge="1" parent="1">
          <mxGeometry width="50" height="50" relative="1" as="geometry">
            <mxPoint x="120" y="120" as="sourcePoint" />
            <mxPoint x="620" y="120" as="targetPoint" />
          </mxGeometry>
        </mxCell>
        <mxCell id="n87EDvqpTR0pAGlPv8mh-9" value="" style="endArrow=none;html=1;rounded=0;" edge="1" parent="1">
          <mxGeometry width="50" height="50" relative="1" as="geometry">
            <mxPoint x="220" y="140" as="sourcePoint" />
            <mxPoint x="220" y="120" as="targetPoint" />
          </mxGeometry>
        </mxCell>
        <mxCell id="n87EDvqpTR0pAGlPv8mh-11" value="" style="endArrow=none;html=1;rounded=0;" edge="1" parent="1">
          <mxGeometry width="50" height="50" relative="1" as="geometry">
            <mxPoint x="379.76" y="140" as="sourcePoint" />
            <mxPoint x="379.76" y="120" as="targetPoint" />
          </mxGeometry>
        </mxCell>
        <mxCell id="n87EDvqpTR0pAGlPv8mh-12" value="" style="endArrow=none;html=1;rounded=0;" edge="1" parent="1">
          <mxGeometry width="50" height="50" relative="1" as="geometry">
            <mxPoint x="539.76" y="140" as="sourcePoint" />
            <mxPoint x="539.76" y="120" as="targetPoint" />
          </mxGeometry>
        </mxCell>
        <mxCell id="n87EDvqpTR0pAGlPv8mh-13" value="" style="endArrow=none;html=1;rounded=0;entryX=0.5;entryY=1;entryDx=0;entryDy=0;" edge="1" parent="1" target="n87EDvqpTR0pAGlPv8mh-7">
          <mxGeometry width="50" height="50" relative="1" as="geometry">
            <mxPoint x="300" y="120" as="sourcePoint" />
            <mxPoint x="250" y="150" as="targetPoint" />
          </mxGeometry>
        </mxCell>
        <mxCell id="n87EDvqpTR0pAGlPv8mh-14" value="" style="endArrow=none;html=1;rounded=0;" edge="1" parent="1">
          <mxGeometry width="50" height="50" relative="1" as="geometry">
            <mxPoint x="619.5799999999999" y="120" as="sourcePoint" />
            <mxPoint x="619.5799999999999" y="100" as="targetPoint" />
          </mxGeometry>
        </mxCell>
        <mxCell id="n87EDvqpTR0pAGlPv8mh-15" value="" style="endArrow=none;html=1;rounded=0;" edge="1" parent="1">
          <mxGeometry width="50" height="50" relative="1" as="geometry">
            <mxPoint x="459.5" y="120" as="sourcePoint" />
            <mxPoint x="459.5" y="100" as="targetPoint" />
          </mxGeometry>
        </mxCell>
      </root>
    </mxGraphModel>
  </diagram>
</mxfile>
